<?xml version="1.0" encoding="UTF-8" standalone="no"?>
<svg
   xmlns:dc="http://purl.org/dc/elements/1.1/"
   xmlns:cc="http://creativecommons.org/ns#"
   xmlns:rdf="http://www.w3.org/1999/02/22-rdf-syntax-ns#"
   xmlns:svg="http://www.w3.org/2000/svg"
   xmlns="http://www.w3.org/2000/svg"
   xmlns:sodipodi="http://sodipodi.sourceforge.net/DTD/sodipodi-0.dtd"
   xmlns:inkscape="http://www.inkscape.org/namespaces/inkscape"
   viewBox="0 0 512 512"
   style="height: 512px; width: 512px;"
   version="1.1"
   id="svg8"
   sodipodi:docname="mona-lisa.svg"
   inkscape:version="0.92.4 (5da689c313, 2019-01-14)"
   inkscape:export-filename="C:\Users\IainBallard\Downloads\mona-lisa.png"
   inkscape:export-xdpi="96"
   inkscape:export-ydpi="96">
  <metadata
     id="metadata14">
    <rdf:RDF>
      <cc:Work
         rdf:about="">
        <dc:format>image/svg+xml</dc:format>
        <dc:type
           rdf:resource="http://purl.org/dc/dcmitype/StillImage" />
      </cc:Work>
    </rdf:RDF>
  </metadata>
  <defs
     id="defs12" />
  <sodipodi:namedview
     pagecolor="#ffffff"
     bordercolor="#666666"
     borderopacity="1"
     objecttolerance="10"
     gridtolerance="10"
     guidetolerance="10"
     inkscape:pageopacity="0"
     inkscape:pageshadow="2"
     inkscape:window-width="1920"
     inkscape:window-height="1017"
     id="namedview10"
     showgrid="false"
     inkscape:zoom="1.3037281"
     inkscape:cx="223.45067"
     inkscape:cy="255.02182"
     inkscape:window-x="-8"
     inkscape:window-y="-8"
     inkscape:window-maximized="1"
     inkscape:current-layer="svg8" />
  <path
     d="M0 0h512v512H0z"
     fill="#000"
     fill-opacity="1"
     id="path2" />
  <g
     class=""
     transform="matrix(1.1936976,0,0,1.108005,-48.645865,-27.700125)"
     id="g6">
    <path
       d="M 89,25 V 487 H 423 V 25 Z m 30,30 H 393 V 457 H 119 Z m 18,18 v 94 h 49.8 c 1,-10.8 2.3,-22 4.4,-34 6.4,-21 24.8,-43.28 45,-47.7 3.9,-0.95 8.4,1.48 12.6,1.4 2.7,0 13.4,-2.68 15.3,-2.8 30.8,0.81 55.3,33.7 59.3,60.3 0.6,4.5 2,12.7 3.6,22.8 h 48 V 73 Z m 112.9,31.3 c -9.9,0 -19.3,5.7 -26.9,16.6 -7.5,10.9 -12.6,26.7 -12.6,44.3 0,17.6 5.1,33.4 12.6,44.3 7.6,10.9 17,16.6 26.9,16.6 9.9,0 19.3,-5.7 26.9,-16.6 7.5,-10.9 12.6,-26.7 12.6,-44.3 0,-17.6 -5.1,-33.4 -12.6,-44.3 -7.6,-10.9 -17,-16.6 -26.9,-16.6 z M 137,185 v 132.8 c 7.6,-16.4 30,-32.3 35.4,-46 10.6,-26.8 11,-54.5 13.1,-86.8 z m 193,0 c 3.5,22.9 7.9,46.9 9.9,69.3 14.7,9.4 27.1,21.6 35.1,35.5 V 185 Z m -52.7,49.7 c -8,5.9 -17.3,9.4 -27.4,9.4 -3.6,0 -7.1,-0.5 -10.5,-1.3 -4.1,6.7 -7.8,13.9 -10.9,22.1 -5,12.9 -17.2,19.1 -27.7,26.3 -7.7,7.4 -25.4,14.3 -18.4,27.4 9.7,12.9 37.8,14.2 50.8,14.1 19.3,-2.3 44.6,-1.5 59,-14.1 z m -60.1,124 -5.7,17.8 59.2,32.2 9.9,-28.1 C 268,368.3 244.1,362.7 217.2,358.7 Z m -15.6,44 c -4.7,1.3 -9.6,2.9 -13.7,4.3 -2.9,8.5 -0.5,18 1.7,29.8 22.3,3 37.9,-8.3 54.6,-18.5 z"
       id="path4"
       inkscape:connector-curvature="0"
       style="fill:#ffffff;fill-opacity:1" />
  </g>
  <ellipse
     id="path3719"
     cx="227.25424"
     cy="144.81357"
     rx="17.890299"
     ry="17.890297"
     style="fill:#ffffff;stroke:#000000;stroke-width:1.01601315" />
  <ellipse
     id="path3719-1"
     cx="269.01694"
     cy="146.44069"
     rx="17.890299"
     ry="17.890297"
     style="fill:#ffffff;stroke:#000000;stroke-width:1.01601315" />
  <circle
     style="fill:#000000;stroke:#000000"
     id="path3736"
     cx="238.54668"
     cy="145.35915"
     r="6.1362486" />
  <circle
     style="fill:#000000;stroke:#000000"
     id="path3736-1"
     cx="256.95541"
     cy="146.12617"
     r="6.1362486" />
</svg>
